<?xml version="1.0" encoding="iso-8859-1"?>
<!-- Uploaded to: SVG Repo, www.svgrepo.com, Generator: SVG Repo Mixer Tools -->
<svg fill="#000000" height="800px" width="800px" version="1.1" id="Layer_1" xmlns="http://www.w3.org/2000/svg" xmlns:xlink="http://www.w3.org/1999/xlink" 
	 viewBox="0 0 512 512" xml:space="preserve">
<g>
	<g>
		<path d="M486.881,42.756H25.119C11.268,42.756,0,54.024,0,67.875v316.392c0,13.851,11.268,25.119,25.119,25.119h170.33
			l-6.26,43.825H179.04c-4.427,0-8.017,3.589-8.017,8.017c0,4.427,3.589,8.017,8.017,8.017H332.96c4.427,0,8.017-3.589,8.017-8.017
			c0-4.427-3.589-8.017-8.017-8.017h-10.149l-6.26-43.825h170.33c13.851,0,25.119-11.268,25.119-25.119V67.875
			C512,54.024,500.732,42.756,486.881,42.756z M205.385,453.211l6.26-43.825h88.707l6.262,43.825H205.385z M495.967,384.267
			c0,5.01-4.076,9.086-9.086,9.086H25.119c-5.01,0-9.086-4.076-9.086-9.086V366.63h479.933V384.267z M495.967,350.597H16.033V67.875
			c0-5.01,4.076-9.086,9.086-9.086h461.762c5.01,0,9.086,4.076,9.086,9.086V350.597z"/>
	</g>
</g>
<g>
	<g>
		<path d="M469.779,76.96H42.221c-4.427,0-8.017,3.589-8.017,8.017v239.432c0,4.427,3.589,8.017,8.017,8.017h427.557
			c4.427,0,8.017-3.589,8.017-8.017V84.977C477.795,80.55,474.206,76.96,469.779,76.96z M213.654,316.393
			c3.63-15.301,17.399-26.722,33.795-26.722s30.165,11.421,33.795,26.722H213.654z M297.583,316.393
			c-3.857-24.2-24.867-42.756-50.134-42.756s-46.278,18.556-50.133,42.756h-18.329c3.987-34.251,33.159-60.927,68.463-60.927
			c35.303,0,64.476,26.676,68.463,60.927H297.583z M332.036,316.393c-4.054-43.11-40.436-76.96-84.588-76.96
			s-80.534,33.851-84.588,76.96h-18.249c4.105-53.144,48.659-95.132,102.838-95.132s98.734,41.987,102.838,95.132H332.036z
			 M461.762,316.393h-86.58v-9.086c0-4.427-3.589-8.017-8.017-8.017h-3.207c-3.073-14.268-8.704-27.595-16.394-39.473l2.298-2.298
			c3.131-3.131,3.131-8.207,0-11.337l-24.186-24.186c-1.503-1.504-3.542-2.348-5.668-2.348s-4.166,0.844-5.668,2.348l-2.298,2.298
			c-11.879-7.69-25.206-13.321-39.473-16.394v-3.207c0-4.427-3.589-8.017-8.017-8.017h-34.205c-4.427,0-8.017,3.589-8.017,8.017
			v3.207c-14.268,3.073-27.595,8.704-39.473,16.394l-2.298-2.298c-1.503-1.503-3.542-2.348-5.668-2.348
			c-2.126,0-4.165,0.844-5.668,2.348l-24.186,24.186c-3.131,3.131-3.131,8.206,0,11.337l2.298,2.298
			c-7.69,11.879-13.321,25.206-16.394,39.473h-3.207c-4.427,0-8.017,3.589-8.017,8.017v9.086h-69.48V92.994h411.524V316.393z"/>
	</g>
</g>
<g>
	<g>
		<path d="M409.921,171.023h-1.307c-1.099-5.692-3.336-10.983-6.479-15.617l0.931-0.931c3.131-3.131,3.131-8.206,0-11.337
			c-3.131-3.131-8.207-3.131-11.337,0l-0.931,0.931c-4.634-3.141-9.925-5.379-15.617-6.479v-1.307c0-4.427-3.589-8.017-8.017-8.017
			s-8.017,3.589-8.017,8.017v1.307c-5.692,1.099-10.983,3.337-15.617,6.479l-0.931-0.931c-3.131-3.131-8.207-3.131-11.337,0
			c-3.131,3.131-3.131,8.206,0,11.337l0.931,0.931c-3.141,4.634-5.38,9.925-6.479,15.617h-1.307c-4.427,0-8.017,3.589-8.017,8.017
			s3.589,8.017,8.017,8.017h1.307c1.099,5.692,3.336,10.983,6.479,15.617l-0.931,0.931c-3.131,3.131-3.131,8.206,0,11.337
			c1.565,1.566,3.617,2.348,5.668,2.348s4.103-0.782,5.668-2.348l0.931-0.931c4.634,3.141,9.925,5.379,15.617,6.479v1.307
			c0,4.427,3.589,8.017,8.017,8.017c4.427,0,8.017-3.589,8.017-8.017v-1.307c5.692-1.099,10.983-3.337,15.617-6.479l0.931,0.931
			c1.565,1.566,3.617,2.348,5.668,2.348s4.103-0.782,5.668-2.348c3.131-3.131,3.131-8.206,0-11.337l-0.931-0.931
			c3.141-4.634,5.38-9.925,6.479-15.617h1.307c4.427,0,8.017-3.589,8.017-8.017S414.348,171.023,409.921,171.023z M367.165,205.228
			c-14.44,0-26.188-11.748-26.188-26.188s11.748-26.188,26.188-26.188s26.188,11.748,26.188,26.188S381.605,205.228,367.165,205.228
			z"/>
	</g>
</g>
<g>
	<g>
		<path d="M367.165,170.98c-4.427,0-8.059,3.632-8.059,8.059s3.632,8.059,8.059,8.059c4.427,0,8.06-3.632,8.06-8.059
			S371.592,170.98,367.165,170.98z"/>
	</g>
</g>
<g>
	<g>
		<path d="M444.695,270.435l-1.6-0.924c0.323-1.604,0.494-3.262,0.494-4.961s-0.171-3.356-0.494-4.961l1.6-0.924
			c3.834-2.214,5.148-7.117,2.934-10.951c-2.214-3.835-7.117-5.148-10.951-2.934l-1.616,0.933c-2.476-2.183-5.382-3.885-8.575-4.964
			v-1.853c0-4.427-3.589-8.017-8.017-8.017s-8.016,3.589-8.016,8.017v1.853c-3.193,1.078-6.1,2.78-8.575,4.964l-1.616-0.933
			c-3.835-2.215-8.737-0.9-10.951,2.934c-2.214,3.834-0.9,8.737,2.934,10.951l1.6,0.924c-0.324,1.604-0.495,3.263-0.495,4.961
			s0.171,3.356,0.494,4.961l-1.6,0.924c-3.834,2.214-5.148,7.117-2.934,10.951c1.485,2.572,4.179,4.009,6.95,4.009
			c1.36,0,2.739-0.346,4.001-1.075l1.616-0.933c2.476,2.183,5.382,3.885,8.575,4.964v1.854c0,4.427,3.589,8.017,8.017,8.017
			s8.017-3.589,8.017-8.017v-1.854c3.193-1.078,6.1-2.78,8.575-4.964l1.616,0.933c1.262,0.729,2.641,1.075,4.001,1.075
			c2.771,0,5.465-1.438,6.95-4.009C449.843,277.552,448.529,272.649,444.695,270.435z M418.472,273.637
			c-5.01,0-9.086-4.076-9.086-9.086s4.076-9.086,9.086-9.086c5.01,0,9.086,4.076,9.086,9.086S423.482,273.637,418.472,273.637z"/>
	</g>
</g>
<g>
	<g>
		<path d="M102.079,119.716H84.977c-4.427,0-8.017,3.589-8.017,8.017c0,4.427,3.589,8.017,8.017,8.017h17.102
			c4.427,0,8.017-3.589,8.017-8.017C110.096,123.305,106.507,119.716,102.079,119.716z"/>
	</g>
</g>
<g>
	<g>
		<path d="M230.347,119.716h-94.063c-4.427,0-8.017,3.589-8.017,8.017c0,4.427,3.589,8.017,8.017,8.017h94.063
			c4.427,0,8.017-3.589,8.017-8.017C238.363,123.305,234.774,119.716,230.347,119.716z"/>
	</g>
</g>
<g>
	<g>
		<path d="M102.079,153.921H84.977c-4.427,0-8.017,3.589-8.017,8.017s3.589,8.017,8.017,8.017h17.102
			c4.427,0,8.017-3.589,8.017-8.017S106.507,153.921,102.079,153.921z"/>
	</g>
</g>
<g>
	<g>
		<path d="M196.142,153.921h-59.858c-4.427,0-8.017,3.589-8.017,8.017s3.589,8.017,8.017,8.017h59.858
			c4.427,0,8.017-3.589,8.017-8.017S200.569,153.921,196.142,153.921z"/>
	</g>
</g>
<g>
	<g>
		<path d="M170.489,188.125h-34.205c-4.427,0-8.017,3.589-8.017,8.017s3.589,8.017,8.017,8.017h34.205
			c4.427,0,8.017-3.589,8.017-8.017S174.916,188.125,170.489,188.125z"/>
	</g>
</g>
<g>
	<g>
		<path d="M256,153.921h-25.653c-4.427,0-8.017,3.589-8.017,8.017s3.589,8.017,8.017,8.017H256c4.427,0,8.017-3.589,8.017-8.017
			S260.427,153.921,256,153.921z"/>
	</g>
</g>
<g>
	<g>
		<path d="M102.079,188.125H84.977c-4.427,0-8.017,3.589-8.017,8.017s3.589,8.017,8.017,8.017h17.102
			c4.427,0,8.017-3.589,8.017-8.017S106.507,188.125,102.079,188.125z"/>
	</g>
</g>
</svg>